<svg viewBox="0 0 640 430" width="640" height="430" xmlns="http://www.w3.org/2000/svg">
<rect x="15" y="15" width="610" height="400" rx="18" fill="#FBFAFF" stroke="#D8CBFF" stroke-width="1.5"/>
<text x="320.0" y="38.0" text-anchor="middle" font-family="Arial, sans-serif" font-size="17" font-weight="700" fill="#2B005C">The toolbox</text>
<rect x="35.0" y="69" width="275.0" height="54" rx="10" fill="#F5F3FF" stroke="#B9A9E8" stroke-width="1" stroke-dasharray="0"/>
<circle cx="53.0" cy="96.0" r="3.5" fill="#7C5CFF"/>
<text x="67.0" y="91" font-family="Arial, sans-serif" font-size="14" font-weight="700" fill="#3E2A85">Logic</text>
<text x="67.0" y="109" font-family="Arial, sans-serif" font-size="11.5" fill="#6B5B95">If/Else, comparisons, type checks</text>
<rect x="330.0" y="69" width="275.0" height="54" rx="10" fill="#F5F3FF" stroke="#B9A9E8" stroke-width="1" stroke-dasharray="0"/>
<circle cx="348.0" cy="96.0" r="3.5" fill="#7C5CFF"/>
<text x="362.0" y="91" font-family="Arial, sans-serif" font-size="14" font-weight="700" fill="#3E2A85">Loops</text>
<text x="362.0" y="109" font-family="Arial, sans-serif" font-size="11.5" fill="#6B5B95">Repeat, While, For-Each</text>
<rect x="35.0" y="137" width="275.0" height="54" rx="10" fill="#F5F3FF" stroke="#B9A9E8" stroke-width="1" stroke-dasharray="0"/>
<circle cx="53.0" cy="164.0" r="3.5" fill="#7C5CFF"/>
<text x="67.0" y="159" font-family="Arial, sans-serif" font-size="14" font-weight="700" fill="#3E2A85">Math</text>
<text x="67.0" y="177" font-family="Arial, sans-serif" font-size="11.5" fill="#6B5B95">Arithmetic, min/max, random</text>
<rect x="330.0" y="137" width="275.0" height="54" rx="10" fill="#F5F3FF" stroke="#B9A9E8" stroke-width="1" stroke-dasharray="0"/>
<circle cx="348.0" cy="164.0" r="3.5" fill="#7C5CFF"/>
<text x="362.0" y="159" font-family="Arial, sans-serif" font-size="14" font-weight="700" fill="#3E2A85">Text</text>
<text x="362.0" y="177" font-family="Arial, sans-serif" font-size="11.5" fill="#6B5B95">Strings, joining, splitting</text>
<rect x="35.0" y="205" width="275.0" height="54" rx="10" fill="#F5F3FF" stroke="#B9A9E8" stroke-width="1" stroke-dasharray="0"/>
<circle cx="53.0" cy="232.0" r="3.5" fill="#7C5CFF"/>
<text x="67.0" y="227" font-family="Arial, sans-serif" font-size="14" font-weight="700" fill="#3E2A85">Input / Output</text>
<text x="67.0" y="245" font-family="Arial, sans-serif" font-size="11.5" fill="#6B5B95">Print, prompt for input</text>
<rect x="330.0" y="205" width="275.0" height="54" rx="10" fill="#F5F3FF" stroke="#B9A9E8" stroke-width="1" stroke-dasharray="0"/>
<circle cx="348.0" cy="232.0" r="3.5" fill="#7C5CFF"/>
<text x="362.0" y="227" font-family="Arial, sans-serif" font-size="14" font-weight="700" fill="#3E2A85">Data structures</text>
<text x="362.0" y="245" font-family="Arial, sans-serif" font-size="11.5" fill="#6B5B95">Lists, dicts, sets, tuples</text>
<rect x="35.0" y="273" width="275.0" height="54" rx="10" fill="#F5F3FF" stroke="#B9A9E8" stroke-width="1" stroke-dasharray="0"/>
<circle cx="53.0" cy="300.0" r="3.5" fill="#7C5CFF"/>
<text x="67.0" y="295" font-family="Arial, sans-serif" font-size="14" font-weight="700" fill="#3E2A85">Stacks &amp; queues</text>
<text x="67.0" y="313" font-family="Arial, sans-serif" font-size="11.5" fill="#6B5B95">Push, pop, enqueue, dequeue</text>
<rect x="330.0" y="273" width="275.0" height="54" rx="10" fill="#F5F3FF" stroke="#B9A9E8" stroke-width="1" stroke-dasharray="0"/>
<circle cx="348.0" cy="300.0" r="3.5" fill="#7C5CFF"/>
<text x="362.0" y="295" font-family="Arial, sans-serif" font-size="14" font-weight="700" fill="#3E2A85">Variables</text>
<text x="362.0" y="313" font-family="Arial, sans-serif" font-size="11.5" fill="#6B5B95">Create storage, swap values</text>
<rect x="35.0" y="341" width="275.0" height="54" rx="10" fill="#F5F3FF" stroke="#B9A9E8" stroke-width="1" stroke-dasharray="0"/>
<circle cx="53.0" cy="368.0" r="3.5" fill="#7C5CFF"/>
<text x="67.0" y="363" font-family="Arial, sans-serif" font-size="14" font-weight="700" fill="#3E2A85">Functions</text>
<text x="67.0" y="381" font-family="Arial, sans-serif" font-size="11.5" fill="#6B5B95">Define procedures, return values</text>
<rect x="330.0" y="341" width="275.0" height="54" rx="10" fill="#F5F3FF" stroke="#B9A9E8" stroke-width="1" stroke-dasharray="0"/>
<circle cx="348.0" cy="368.0" r="3.5" fill="#7C5CFF"/>
<text x="362.0" y="363" font-family="Arial, sans-serif" font-size="14" font-weight="700" fill="#3E2A85">Raw Python</text>
<text x="362.0" y="381" font-family="Arial, sans-serif" font-size="11.5" fill="#6B5B95">Text-based code, advanced use</text>
</svg>